# xmcd
#
# Track frame offsets: 
#        150
#        24125
#        47140
#        66960
#        90600
#        111387
#        136420
#        156675
#        184807
#        203527
#
# Disc length: 2917 seconds
#
# Revision: 6
# Processed by: cddbd v1.5.2PL0 Copyright (c) Steve Scherf et al.
# Submitted via: ExactAudioCopy v0.95b4
#
DISCID=8a0b630a
DTITLE=Anja Garbarek - Balloon Mood
DYEAR=1999
DGENRE=Pop
TTITLE0=Beyond My Control
TTITLE1=I.C.U.
TTITLE2=Just One Of Those Days
TTITLE3=Picking Up Pieces
TTITLE4=The Cabinet
TTITLE5=Something Written
TTITLE6=Strange Noises
TTITLE7=The Telescope Man Says
TTITLE8=She Collects (Stuff Like That)
TTITLE9=Balloon Mood
EXTD=YEAR: 1999
EXTT0=
EXTT1=
EXTT2=
EXTT3=
EXTT4=
EXTT5=
EXTT6=
EXTT7=
EXTT8=
EXTT9=
PLAYORDER=
